<?xml version="1.0" encoding="UTF-8" standalone="no"?>
<!DOCTYPE svg PUBLIC "-//W3C//DTD SVG 1.1//EN"
 "http://www.w3.org/Graphics/SVG/1.1/DTD/svg11.dtd">
<!-- Generated by graphviz version 2.26.3 (20100126.1600)
 -->
<!-- Title: controllers_diagram Pages: 1 -->
<svg width="1048pt" height="882pt"
 viewBox="0.00 0.00 1048.43 882.36" xmlns="http://www.w3.org/2000/svg" xmlns:xlink="http://www.w3.org/1999/xlink">
<g id="graph1" class="graph" transform="scale(1 1) rotate(0) translate(4 878.365)">
<title>controllers_diagram</title>
<polygon fill="white" stroke="white" points="-4,5 -4,-878.365 1045.43,-878.365 1045.43,5 -4,5"/>
<!-- _diagram_info -->
<g id="node1" class="node"><title>_diagram_info</title>
<text text-anchor="start" x="569" y="-78.3" font-family="Times Roman,serif" font-size="13.00">Controllers diagram</text>
<text text-anchor="start" x="569" y="-61.3" font-family="Times Roman,serif" font-size="13.00">Date: Jun 24 2014 &#45; 13:21</text>
<text text-anchor="start" x="569" y="-44.3" font-family="Times Roman,serif" font-size="13.00">Migration version: 20140619164129</text>
<text text-anchor="start" x="569" y="-27.3" font-family="Times Roman,serif" font-size="13.00">Generated by RailRoady 1.1.1</text>
<text text-anchor="start" x="569" y="-10.3" font-family="Times Roman,serif" font-size="13.00">http://railroady.prestonlee.com</text>
</g>
<!-- ProductIngredientsController -->
<g id="node2" class="node"><title>ProductIngredientsController</title>
<polyline fill="none" stroke="black" points="13,-447.055 206,-447.055 "/>
<path fill="none" stroke="black" d="M206,-447.055C212,-447.055 218,-453.055 218,-459.055"/>
<polyline fill="none" stroke="black" points="218,-459.055 218,-553.055 "/>
<path fill="none" stroke="black" d="M218,-553.055C218,-559.055 212,-565.055 206,-565.055"/>
<polyline fill="none" stroke="black" points="206,-565.055 13,-565.055 "/>
<path fill="none" stroke="black" d="M13,-565.055C7,-565.055 1,-559.055 1,-553.055"/>
<polyline fill="none" stroke="black" points="1,-553.055 1,-459.055 "/>
<path fill="none" stroke="black" d="M1,-459.055C1,-453.055 7,-447.055 13,-447.055"/>
<text text-anchor="middle" x="109.5" y="-548.455" font-family="Times Roman,serif" font-size="14.00">ProductIngredientsController</text>
<polyline fill="none" stroke="black" points="1,-539.055 218,-539.055 "/>
<polyline fill="none" stroke="black" points="1,-515.055 218,-515.055 "/>
<polyline fill="none" stroke="black" points="1,-491.055 218,-491.055 "/>
<text text-anchor="start" x="9" y="-474.455" font-family="Times Roman,serif" font-size="14.00">_layout</text>
<text text-anchor="start" x="9" y="-456.455" font-family="Times Roman,serif" font-size="14.00">permitted_params</text>
</g>
<!-- ApplicationController -->
<g id="node3" class="node"><title>ApplicationController</title>
<polyline fill="none" stroke="black" points="445.739,-487.542 607.739,-487.542 "/>
<path fill="none" stroke="black" d="M607.739,-487.542C613.739,-487.542 619.739,-493.542 619.739,-499.542"/>
<polyline fill="none" stroke="black" points="619.739,-499.542 619.739,-701.542 "/>
<path fill="none" stroke="black" d="M619.739,-701.542C619.739,-707.542 613.739,-713.542 607.739,-713.542"/>
<polyline fill="none" stroke="black" points="607.739,-713.542 445.739,-713.542 "/>
<path fill="none" stroke="black" d="M445.739,-713.542C439.739,-713.542 433.739,-707.542 433.739,-701.542"/>
<polyline fill="none" stroke="black" points="433.739,-701.542 433.739,-499.542 "/>
<path fill="none" stroke="black" d="M433.739,-499.542C433.739,-493.542 439.739,-487.542 445.739,-487.542"/>
<text text-anchor="middle" x="526.739" y="-696.942" font-family="Times Roman,serif" font-size="14.00">ApplicationController</text>
<polyline fill="none" stroke="black" points="433.739,-687.542 619.739,-687.542 "/>
<polyline fill="none" stroke="black" points="433.739,-663.542 619.739,-663.542 "/>
<polyline fill="none" stroke="black" points="433.739,-639.542 619.739,-639.542 "/>
<text text-anchor="start" x="441.739" y="-622.942" font-family="Times Roman,serif" font-size="14.00">_layout</text>
<text text-anchor="start" x="441.739" y="-604.942" font-family="Times Roman,serif" font-size="14.00">connect_auth</text>
<text text-anchor="start" x="441.739" y="-586.942" font-family="Times Roman,serif" font-size="14.00">current_user</text>
<text text-anchor="start" x="441.739" y="-568.942" font-family="Times Roman,serif" font-size="14.00">current_user_session</text>
<text text-anchor="start" x="441.739" y="-550.942" font-family="Times Roman,serif" font-size="14.00">redirect_back_or_default</text>
<text text-anchor="start" x="441.739" y="-532.942" font-family="Times Roman,serif" font-size="14.00">require_no_user</text>
<text text-anchor="start" x="441.739" y="-514.942" font-family="Times Roman,serif" font-size="14.00">require_user</text>
<text text-anchor="start" x="441.739" y="-496.942" font-family="Times Roman,serif" font-size="14.00">store_location</text>
</g>
<!-- ApplicationController&#45;&gt;ProductIngredientsController -->
<g id="edge2" class="edge"><title>ApplicationController&#45;&gt;ProductIngredientsController</title>
<path fill="none" stroke="black" d="M433.632,-563.681C419.302,-558.8 404.565,-554.222 390.414,-550.544 334.381,-535.979 270.747,-525.423 218.229,-518.26"/>
</g>
<!-- MarkupsController -->
<g id="node4" class="node"><title>MarkupsController</title>
<polyline fill="none" stroke="black" points="345.346,-141.5 464.346,-141.5 "/>
<path fill="none" stroke="black" d="M464.346,-141.5C470.346,-141.5 476.346,-147.5 476.346,-153.5"/>
<polyline fill="none" stroke="black" points="476.346,-153.5 476.346,-247.5 "/>
<path fill="none" stroke="black" d="M476.346,-247.5C476.346,-253.5 470.346,-259.5 464.346,-259.5"/>
<polyline fill="none" stroke="black" points="464.346,-259.5 345.346,-259.5 "/>
<path fill="none" stroke="black" d="M345.346,-259.5C339.346,-259.5 333.346,-253.5 333.346,-247.5"/>
<polyline fill="none" stroke="black" points="333.346,-247.5 333.346,-153.5 "/>
<path fill="none" stroke="black" d="M333.346,-153.5C333.346,-147.5 339.346,-141.5 345.346,-141.5"/>
<text text-anchor="middle" x="404.846" y="-242.9" font-family="Times Roman,serif" font-size="14.00">MarkupsController</text>
<polyline fill="none" stroke="black" points="333.346,-233.5 476.346,-233.5 "/>
<polyline fill="none" stroke="black" points="333.346,-209.5 476.346,-209.5 "/>
<polyline fill="none" stroke="black" points="333.346,-185.5 476.346,-185.5 "/>
<text text-anchor="start" x="341.346" y="-168.9" font-family="Times Roman,serif" font-size="14.00">_layout</text>
<text text-anchor="start" x="341.346" y="-150.9" font-family="Times Roman,serif" font-size="14.00">permitted_params</text>
</g>
<!-- ApplicationController&#45;&gt;MarkupsController -->
<g id="edge4" class="edge"><title>ApplicationController&#45;&gt;MarkupsController</title>
<path fill="none" stroke="black" d="M457.144,-487.257C452.171,-476.608 447.659,-465.79 443.934,-455.087 421.445,-390.472 411.875,-312.155 407.815,-259.595"/>
</g>
<!-- ProductPackageElementsController -->
<g id="node5" class="node"><title>ProductPackageElementsController</title>
<polyline fill="none" stroke="black" points="280.895,-752.791 515.895,-752.791 "/>
<path fill="none" stroke="black" d="M515.895,-752.791C521.895,-752.791 527.895,-758.791 527.895,-764.791"/>
<polyline fill="none" stroke="black" points="527.895,-764.791 527.895,-858.791 "/>
<path fill="none" stroke="black" d="M527.895,-858.791C527.895,-864.791 521.895,-870.791 515.895,-870.791"/>
<polyline fill="none" stroke="black" points="515.895,-870.791 280.895,-870.791 "/>
<path fill="none" stroke="black" d="M280.895,-870.791C274.895,-870.791 268.895,-864.791 268.895,-858.791"/>
<polyline fill="none" stroke="black" points="268.895,-858.791 268.895,-764.791 "/>
<path fill="none" stroke="black" d="M268.895,-764.791C268.895,-758.791 274.895,-752.791 280.895,-752.791"/>
<text text-anchor="middle" x="398.395" y="-854.191" font-family="Times Roman,serif" font-size="14.00">ProductPackageElementsController</text>
<polyline fill="none" stroke="black" points="268.895,-844.791 527.895,-844.791 "/>
<polyline fill="none" stroke="black" points="268.895,-820.791 527.895,-820.791 "/>
<polyline fill="none" stroke="black" points="268.895,-796.791 527.895,-796.791 "/>
<text text-anchor="start" x="276.895" y="-780.191" font-family="Times Roman,serif" font-size="14.00">_layout</text>
<text text-anchor="start" x="276.895" y="-762.191" font-family="Times Roman,serif" font-size="14.00">permitted_params</text>
</g>
<!-- ApplicationController&#45;&gt;ProductPackageElementsController -->
<g id="edge6" class="edge"><title>ApplicationController&#45;&gt;ProductPackageElementsController</title>
<path fill="none" stroke="black" d="M458.059,-713.588C449.893,-727.027 441.826,-740.306 434.389,-752.547"/>
</g>
<!-- PackageElementsController -->
<g id="node6" class="node"><title>PackageElementsController</title>
<polyline fill="none" stroke="black" points="646.851,-562.769 828.851,-562.769 "/>
<path fill="none" stroke="black" d="M828.851,-562.769C834.851,-562.769 840.851,-568.769 840.851,-574.769"/>
<polyline fill="none" stroke="black" points="840.851,-574.769 840.851,-668.769 "/>
<path fill="none" stroke="black" d="M840.851,-668.769C840.851,-674.769 834.851,-680.769 828.851,-680.769"/>
<polyline fill="none" stroke="black" points="828.851,-680.769 646.851,-680.769 "/>
<path fill="none" stroke="black" d="M646.851,-680.769C640.851,-680.769 634.851,-674.769 634.851,-668.769"/>
<polyline fill="none" stroke="black" points="634.851,-668.769 634.851,-574.769 "/>
<path fill="none" stroke="black" d="M634.851,-574.769C634.851,-568.769 640.851,-562.769 646.851,-562.769"/>
<text text-anchor="middle" x="737.851" y="-664.169" font-family="Times Roman,serif" font-size="14.00">PackageElementsController</text>
<polyline fill="none" stroke="black" points="634.851,-654.769 840.851,-654.769 "/>
<polyline fill="none" stroke="black" points="634.851,-630.769 840.851,-630.769 "/>
<polyline fill="none" stroke="black" points="634.851,-606.769 840.851,-606.769 "/>
<text text-anchor="start" x="642.851" y="-590.169" font-family="Times Roman,serif" font-size="14.00">_layout</text>
<text text-anchor="start" x="642.851" y="-572.169" font-family="Times Roman,serif" font-size="14.00">permitted_params</text>
</g>
<!-- ApplicationController&#45;&gt;PackageElementsController -->
<g id="edge8" class="edge"><title>ApplicationController&#45;&gt;PackageElementsController</title>
<path fill="none" stroke="black" d="M619.95,-609.914C624.81,-610.403 629.706,-610.895 634.595,-611.387"/>
</g>
<!-- PalletsController -->
<g id="node7" class="node"><title>PalletsController</title>
<polyline fill="none" stroke="black" points="257.214,-553.744 375.214,-553.744 "/>
<path fill="none" stroke="black" d="M375.214,-553.744C381.214,-553.744 387.214,-559.744 387.214,-565.744"/>
<polyline fill="none" stroke="black" points="387.214,-565.744 387.214,-659.744 "/>
<path fill="none" stroke="black" d="M387.214,-659.744C387.214,-665.744 381.214,-671.744 375.214,-671.744"/>
<polyline fill="none" stroke="black" points="375.214,-671.744 257.214,-671.744 "/>
<path fill="none" stroke="black" d="M257.214,-671.744C251.214,-671.744 245.214,-665.744 245.214,-659.744"/>
<polyline fill="none" stroke="black" points="245.214,-659.744 245.214,-565.744 "/>
<path fill="none" stroke="black" d="M245.214,-565.744C245.214,-559.744 251.214,-553.744 257.214,-553.744"/>
<text text-anchor="middle" x="316.214" y="-655.144" font-family="Times Roman,serif" font-size="14.00">PalletsController</text>
<polyline fill="none" stroke="black" points="245.214,-645.744 387.214,-645.744 "/>
<polyline fill="none" stroke="black" points="245.214,-621.744 387.214,-621.744 "/>
<polyline fill="none" stroke="black" points="245.214,-597.744 387.214,-597.744 "/>
<text text-anchor="start" x="253.214" y="-581.144" font-family="Times Roman,serif" font-size="14.00">_layout</text>
<text text-anchor="start" x="253.214" y="-563.144" font-family="Times Roman,serif" font-size="14.00">permitted_params</text>
</g>
<!-- ApplicationController&#45;&gt;PalletsController -->
<g id="edge10" class="edge"><title>ApplicationController&#45;&gt;PalletsController</title>
<path fill="none" stroke="black" d="M433.481,-605.947C417.973,-606.846 402.113,-607.765 387.271,-608.625"/>
</g>
<!-- ProductTypesController -->
<g id="node8" class="node"><title>ProductTypesController</title>
<polyline fill="none" stroke="black" points="58.7907,-172.58 211.791,-172.58 "/>
<path fill="none" stroke="black" d="M211.791,-172.58C217.791,-172.58 223.791,-178.58 223.791,-184.58"/>
<polyline fill="none" stroke="black" points="223.791,-184.58 223.791,-278.58 "/>
<path fill="none" stroke="black" d="M223.791,-278.58C223.791,-284.58 217.791,-290.58 211.791,-290.58"/>
<polyline fill="none" stroke="black" points="211.791,-290.58 58.7907,-290.58 "/>
<path fill="none" stroke="black" d="M58.7907,-290.58C52.7907,-290.58 46.7907,-284.58 46.7907,-278.58"/>
<polyline fill="none" stroke="black" points="46.7907,-278.58 46.7907,-184.58 "/>
<path fill="none" stroke="black" d="M46.7907,-184.58C46.7907,-178.58 52.7907,-172.58 58.7907,-172.58"/>
<text text-anchor="middle" x="135.291" y="-273.98" font-family="Times Roman,serif" font-size="14.00">ProductTypesController</text>
<polyline fill="none" stroke="black" points="46.7907,-264.58 223.791,-264.58 "/>
<polyline fill="none" stroke="black" points="46.7907,-240.58 223.791,-240.58 "/>
<polyline fill="none" stroke="black" points="46.7907,-216.58 223.791,-216.58 "/>
<text text-anchor="start" x="54.7907" y="-199.98" font-family="Times Roman,serif" font-size="14.00">_layout</text>
<text text-anchor="start" x="54.7907" y="-181.98" font-family="Times Roman,serif" font-size="14.00">permitted_params</text>
</g>
<!-- ApplicationController&#45;&gt;ProductTypesController -->
<g id="edge12" class="edge"><title>ApplicationController&#45;&gt;ProductTypesController</title>
<path fill="none" stroke="black" d="M433.515,-565.712C359.361,-536.494 263.355,-494.798 234.05,-464.477 221.25,-451.234 182.82,-355.344 157.845,-290.806"/>
</g>
<!-- UsersController -->
<g id="node9" class="node"><title>UsersController</title>
<polyline fill="none" stroke="black" points="865.659,-176.949 983.659,-176.949 "/>
<path fill="none" stroke="black" d="M983.659,-176.949C989.659,-176.949 995.659,-182.949 995.659,-188.949"/>
<polyline fill="none" stroke="black" points="995.659,-188.949 995.659,-282.949 "/>
<path fill="none" stroke="black" d="M995.659,-282.949C995.659,-288.949 989.659,-294.949 983.659,-294.949"/>
<polyline fill="none" stroke="black" points="983.659,-294.949 865.659,-294.949 "/>
<path fill="none" stroke="black" d="M865.659,-294.949C859.659,-294.949 853.659,-288.949 853.659,-282.949"/>
<polyline fill="none" stroke="black" points="853.659,-282.949 853.659,-188.949 "/>
<path fill="none" stroke="black" d="M853.659,-188.949C853.659,-182.949 859.659,-176.949 865.659,-176.949"/>
<text text-anchor="middle" x="924.659" y="-278.349" font-family="Times Roman,serif" font-size="14.00">UsersController</text>
<polyline fill="none" stroke="black" points="853.659,-268.949 995.659,-268.949 "/>
<polyline fill="none" stroke="black" points="853.659,-244.949 995.659,-244.949 "/>
<polyline fill="none" stroke="black" points="853.659,-220.949 995.659,-220.949 "/>
<text text-anchor="start" x="861.659" y="-204.349" font-family="Times Roman,serif" font-size="14.00">_layout</text>
<text text-anchor="start" x="861.659" y="-186.349" font-family="Times Roman,serif" font-size="14.00">permitted_params</text>
</g>
<!-- ApplicationController&#45;&gt;UsersController -->
<g id="edge14" class="edge"><title>ApplicationController&#45;&gt;UsersController</title>
<path fill="none" stroke="black" d="M598.998,-487.421C604.584,-476.692 609.803,-465.813 614.334,-455.087 634.953,-406.284 609.098,-379.059 644.685,-339.81 698.661,-280.279 789.912,-254.762 853.513,-243.893"/>
</g>
<!-- ItemClassesController -->
<g id="node10" class="node"><title>ItemClassesController</title>
<polyline fill="none" stroke="black" points="249.25,-343.277 392.25,-343.277 "/>
<path fill="none" stroke="black" d="M392.25,-343.277C398.25,-343.277 404.25,-349.277 404.25,-355.277"/>
<polyline fill="none" stroke="black" points="404.25,-355.277 404.25,-449.277 "/>
<path fill="none" stroke="black" d="M404.25,-449.277C404.25,-455.277 398.25,-461.277 392.25,-461.277"/>
<polyline fill="none" stroke="black" points="392.25,-461.277 249.25,-461.277 "/>
<path fill="none" stroke="black" d="M249.25,-461.277C243.25,-461.277 237.25,-455.277 237.25,-449.277"/>
<polyline fill="none" stroke="black" points="237.25,-449.277 237.25,-355.277 "/>
<path fill="none" stroke="black" d="M237.25,-355.277C237.25,-349.277 243.25,-343.277 249.25,-343.277"/>
<text text-anchor="middle" x="320.75" y="-444.677" font-family="Times Roman,serif" font-size="14.00">ItemClassesController</text>
<polyline fill="none" stroke="black" points="237.25,-435.277 404.25,-435.277 "/>
<polyline fill="none" stroke="black" points="237.25,-411.277 404.25,-411.277 "/>
<polyline fill="none" stroke="black" points="237.25,-387.277 404.25,-387.277 "/>
<text text-anchor="start" x="245.25" y="-370.677" font-family="Times Roman,serif" font-size="14.00">_layout</text>
<text text-anchor="start" x="245.25" y="-352.677" font-family="Times Roman,serif" font-size="14.00">permitted_params</text>
</g>
<!-- ApplicationController&#45;&gt;ItemClassesController -->
<g id="edge16" class="edge"><title>ApplicationController&#45;&gt;ItemClassesController</title>
<path fill="none" stroke="black" d="M433.689,-510.981C416.203,-494.151 398.332,-476.95 382.116,-461.342"/>
</g>
<!-- StaticController -->
<g id="node11" class="node"><title>StaticController</title>
<polyline fill="none" stroke="black" points="614.175,-152.12 715.175,-152.12 "/>
<path fill="none" stroke="black" d="M715.175,-152.12C721.175,-152.12 727.175,-158.12 727.175,-164.12"/>
<polyline fill="none" stroke="black" points="727.175,-164.12 727.175,-242.12 "/>
<path fill="none" stroke="black" d="M727.175,-242.12C727.175,-248.12 721.175,-254.12 715.175,-254.12"/>
<polyline fill="none" stroke="black" points="715.175,-254.12 614.175,-254.12 "/>
<path fill="none" stroke="black" d="M614.175,-254.12C608.175,-254.12 602.175,-248.12 602.175,-242.12"/>
<polyline fill="none" stroke="black" points="602.175,-242.12 602.175,-164.12 "/>
<path fill="none" stroke="black" d="M602.175,-164.12C602.175,-158.12 608.175,-152.12 614.175,-152.12"/>
<text text-anchor="middle" x="664.675" y="-237.52" font-family="Times Roman,serif" font-size="14.00">StaticController</text>
<polyline fill="none" stroke="black" points="602.175,-228.12 727.175,-228.12 "/>
<text text-anchor="start" x="610.175" y="-211.52" font-family="Times Roman,serif" font-size="14.00">index</text>
<polyline fill="none" stroke="black" points="602.175,-202.12 727.175,-202.12 "/>
<polyline fill="none" stroke="black" points="602.175,-178.12 727.175,-178.12 "/>
<text text-anchor="start" x="610.175" y="-161.52" font-family="Times Roman,serif" font-size="14.00">_layout</text>
</g>
<!-- ApplicationController&#45;&gt;StaticController -->
<g id="edge18" class="edge"><title>ApplicationController&#45;&gt;StaticController</title>
<path fill="none" stroke="black" d="M599.902,-487.294C605.26,-476.637 610.181,-465.807 614.334,-455.087 628.254,-419.159 646.311,-316.984 656.583,-254.329"/>
</g>
<!-- IngredientsController -->
<g id="node12" class="node"><title>IngredientsController</title>
<polyline fill="none" stroke="black" points="459.134,-333.887 599.134,-333.887 "/>
<path fill="none" stroke="black" d="M599.134,-333.887C605.134,-333.887 611.134,-339.887 611.134,-345.887"/>
<polyline fill="none" stroke="black" points="611.134,-345.887 611.134,-439.887 "/>
<path fill="none" stroke="black" d="M611.134,-439.887C611.134,-445.887 605.134,-451.887 599.134,-451.887"/>
<polyline fill="none" stroke="black" points="599.134,-451.887 459.134,-451.887 "/>
<path fill="none" stroke="black" d="M459.134,-451.887C453.134,-451.887 447.134,-445.887 447.134,-439.887"/>
<polyline fill="none" stroke="black" points="447.134,-439.887 447.134,-345.887 "/>
<path fill="none" stroke="black" d="M447.134,-345.887C447.134,-339.887 453.134,-333.887 459.134,-333.887"/>
<text text-anchor="middle" x="529.134" y="-435.287" font-family="Times Roman,serif" font-size="14.00">IngredientsController</text>
<polyline fill="none" stroke="black" points="447.134,-425.887 611.134,-425.887 "/>
<polyline fill="none" stroke="black" points="447.134,-401.887 611.134,-401.887 "/>
<polyline fill="none" stroke="black" points="447.134,-377.887 611.134,-377.887 "/>
<text text-anchor="start" x="455.134" y="-361.287" font-family="Times Roman,serif" font-size="14.00">_layout</text>
<text text-anchor="start" x="455.134" y="-343.287" font-family="Times Roman,serif" font-size="14.00">permitted_params</text>
</g>
<!-- ApplicationController&#45;&gt;IngredientsController -->
<g id="edge20" class="edge"><title>ApplicationController&#45;&gt;IngredientsController</title>
<path fill="none" stroke="black" d="M528.045,-487.297C528.186,-475.149 528.324,-463.174 528.452,-452.046"/>
</g>
<!-- BrandsController -->
<g id="node13" class="node"><title>BrandsController</title>
<polyline fill="none" stroke="black" points="73.88,-724.782 191.88,-724.782 "/>
<path fill="none" stroke="black" d="M191.88,-724.782C197.88,-724.782 203.88,-730.782 203.88,-736.782"/>
<polyline fill="none" stroke="black" points="203.88,-736.782 203.88,-830.782 "/>
<path fill="none" stroke="black" d="M203.88,-830.782C203.88,-836.782 197.88,-842.782 191.88,-842.782"/>
<polyline fill="none" stroke="black" points="191.88,-842.782 73.88,-842.782 "/>
<path fill="none" stroke="black" d="M73.88,-842.782C67.88,-842.782 61.88,-836.782 61.88,-830.782"/>
<polyline fill="none" stroke="black" points="61.88,-830.782 61.88,-736.782 "/>
<path fill="none" stroke="black" d="M61.88,-736.782C61.88,-730.782 67.88,-724.782 73.88,-724.782"/>
<text text-anchor="middle" x="132.88" y="-826.182" font-family="Times Roman,serif" font-size="14.00">BrandsController</text>
<polyline fill="none" stroke="black" points="61.88,-816.782 203.88,-816.782 "/>
<polyline fill="none" stroke="black" points="61.88,-792.782 203.88,-792.782 "/>
<polyline fill="none" stroke="black" points="61.88,-768.782 203.88,-768.782 "/>
<text text-anchor="start" x="69.88" y="-752.182" font-family="Times Roman,serif" font-size="14.00">_layout</text>
<text text-anchor="start" x="69.88" y="-734.182" font-family="Times Roman,serif" font-size="14.00">permitted_params</text>
</g>
<!-- ApplicationController&#45;&gt;BrandsController -->
<g id="edge22" class="edge"><title>ApplicationController&#45;&gt;BrandsController</title>
<path fill="none" stroke="black" d="M433.511,-653.017C419.197,-660.608 404.498,-668.145 390.414,-674.944 328.451,-704.854 256.148,-735.01 203.954,-755.97"/>
</g>
<!-- CategoriesController -->
<g id="node14" class="node"><title>CategoriesController</title>
<polyline fill="none" stroke="black" points="878.824,-453.778 1013.82,-453.778 "/>
<path fill="none" stroke="black" d="M1013.82,-453.778C1019.82,-453.778 1025.82,-459.778 1025.82,-465.778"/>
<polyline fill="none" stroke="black" points="1025.82,-465.778 1025.82,-559.778 "/>
<path fill="none" stroke="black" d="M1025.82,-559.778C1025.82,-565.778 1019.82,-571.778 1013.82,-571.778"/>
<polyline fill="none" stroke="black" points="1013.82,-571.778 878.824,-571.778 "/>
<path fill="none" stroke="black" d="M878.824,-571.778C872.824,-571.778 866.824,-565.778 866.824,-559.778"/>
<polyline fill="none" stroke="black" points="866.824,-559.778 866.824,-465.778 "/>
<path fill="none" stroke="black" d="M866.824,-465.778C866.824,-459.778 872.824,-453.778 878.824,-453.778"/>
<text text-anchor="middle" x="946.324" y="-555.178" font-family="Times Roman,serif" font-size="14.00">CategoriesController</text>
<polyline fill="none" stroke="black" points="866.824,-545.778 1025.82,-545.778 "/>
<polyline fill="none" stroke="black" points="866.824,-521.778 1025.82,-521.778 "/>
<polyline fill="none" stroke="black" points="866.824,-497.778 1025.82,-497.778 "/>
<text text-anchor="start" x="874.824" y="-481.178" font-family="Times Roman,serif" font-size="14.00">_layout</text>
<text text-anchor="start" x="874.824" y="-463.178" font-family="Times Roman,serif" font-size="14.00">permitted_params</text>
</g>
<!-- ApplicationController&#45;&gt;CategoriesController -->
<g id="edge24" class="edge"><title>ApplicationController&#45;&gt;CategoriesController</title>
<path fill="none" stroke="black" d="M619.905,-562.931C623.851,-561.727 627.777,-560.599 631.651,-559.569 710.246,-538.663 802.535,-526.326 866.762,-519.617"/>
</g>
<!-- PackageElementTypesController -->
<g id="node15" class="node"><title>PackageElementTypesController</title>
<polyline fill="none" stroke="black" points="814.434,-728.193 1027.43,-728.193 "/>
<path fill="none" stroke="black" d="M1027.43,-728.193C1033.43,-728.193 1039.43,-734.193 1039.43,-740.193"/>
<polyline fill="none" stroke="black" points="1039.43,-740.193 1039.43,-834.193 "/>
<path fill="none" stroke="black" d="M1039.43,-834.193C1039.43,-840.193 1033.43,-846.193 1027.43,-846.193"/>
<polyline fill="none" stroke="black" points="1027.43,-846.193 814.434,-846.193 "/>
<path fill="none" stroke="black" d="M814.434,-846.193C808.434,-846.193 802.434,-840.193 802.434,-834.193"/>
<polyline fill="none" stroke="black" points="802.434,-834.193 802.434,-740.193 "/>
<path fill="none" stroke="black" d="M802.434,-740.193C802.434,-734.193 808.434,-728.193 814.434,-728.193"/>
<text text-anchor="middle" x="920.934" y="-829.593" font-family="Times Roman,serif" font-size="14.00">PackageElementTypesController</text>
<polyline fill="none" stroke="black" points="802.434,-820.193 1039.43,-820.193 "/>
<polyline fill="none" stroke="black" points="802.434,-796.193 1039.43,-796.193 "/>
<polyline fill="none" stroke="black" points="802.434,-772.193 1039.43,-772.193 "/>
<text text-anchor="start" x="810.434" y="-755.593" font-family="Times Roman,serif" font-size="14.00">_layout</text>
<text text-anchor="start" x="810.434" y="-737.593" font-family="Times Roman,serif" font-size="14.00">permitted_params</text>
</g>
<!-- ApplicationController&#45;&gt;PackageElementTypesController -->
<g id="edge26" class="edge"><title>ApplicationController&#45;&gt;PackageElementTypesController</title>
<path fill="none" stroke="black" d="M619.762,-676.946C623.713,-679.412 627.684,-681.764 631.651,-683.969 685.018,-713.63 748.517,-737.408 802.408,-754.632"/>
</g>
<!-- ProductsController -->
<g id="node16" class="node"><title>ProductsController</title>
<polyline fill="none" stroke="black" points="587.3,-754.865 709.3,-754.865 "/>
<path fill="none" stroke="black" d="M709.3,-754.865C715.3,-754.865 721.3,-760.865 721.3,-766.865"/>
<polyline fill="none" stroke="black" points="721.3,-766.865 721.3,-860.865 "/>
<path fill="none" stroke="black" d="M721.3,-860.865C721.3,-866.865 715.3,-872.865 709.3,-872.865"/>
<polyline fill="none" stroke="black" points="709.3,-872.865 587.3,-872.865 "/>
<path fill="none" stroke="black" d="M587.3,-872.865C581.3,-872.865 575.3,-866.865 575.3,-860.865"/>
<polyline fill="none" stroke="black" points="575.3,-860.865 575.3,-766.865 "/>
<path fill="none" stroke="black" d="M575.3,-766.865C575.3,-760.865 581.3,-754.865 587.3,-754.865"/>
<text text-anchor="middle" x="648.3" y="-856.265" font-family="Times Roman,serif" font-size="14.00">ProductsController</text>
<polyline fill="none" stroke="black" points="575.3,-846.865 721.3,-846.865 "/>
<polyline fill="none" stroke="black" points="575.3,-822.865 721.3,-822.865 "/>
<polyline fill="none" stroke="black" points="575.3,-798.865 721.3,-798.865 "/>
<text text-anchor="start" x="583.3" y="-782.265" font-family="Times Roman,serif" font-size="14.00">_layout</text>
<text text-anchor="start" x="583.3" y="-764.265" font-family="Times Roman,serif" font-size="14.00">permitted_params</text>
</g>
<!-- ApplicationController&#45;&gt;ProductsController -->
<g id="edge28" class="edge"><title>ApplicationController&#45;&gt;ProductsController</title>
<path fill="none" stroke="black" d="M591.257,-713.762C599.326,-727.922 607.308,-741.928 614.629,-754.775"/>
</g>
<!-- UserSessionsController -->
<g id="node17" class="node"><title>UserSessionsController</title>
<polyline fill="none" stroke="black" points="659.885,-343.01 811.885,-343.01 "/>
<path fill="none" stroke="black" d="M811.885,-343.01C817.885,-343.01 823.885,-349.01 823.885,-355.01"/>
<polyline fill="none" stroke="black" points="823.885,-355.01 823.885,-469.01 "/>
<path fill="none" stroke="black" d="M823.885,-469.01C823.885,-475.01 817.885,-481.01 811.885,-481.01"/>
<polyline fill="none" stroke="black" points="811.885,-481.01 659.885,-481.01 "/>
<path fill="none" stroke="black" d="M659.885,-481.01C653.885,-481.01 647.885,-475.01 647.885,-469.01"/>
<polyline fill="none" stroke="black" points="647.885,-469.01 647.885,-355.01 "/>
<path fill="none" stroke="black" d="M647.885,-355.01C647.885,-349.01 653.885,-343.01 659.885,-343.01"/>
<text text-anchor="middle" x="735.885" y="-464.41" font-family="Times Roman,serif" font-size="14.00">UserSessionsController</text>
<polyline fill="none" stroke="black" points="647.885,-455.01 823.885,-455.01 "/>
<text text-anchor="start" x="655.885" y="-438.41" font-family="Times Roman,serif" font-size="14.00">create</text>
<text text-anchor="start" x="655.885" y="-420.41" font-family="Times Roman,serif" font-size="14.00">destroy</text>
<text text-anchor="start" x="655.885" y="-402.41" font-family="Times Roman,serif" font-size="14.00">new</text>
<polyline fill="none" stroke="black" points="647.885,-393.01 823.885,-393.01 "/>
<polyline fill="none" stroke="black" points="647.885,-369.01 823.885,-369.01 "/>
<text text-anchor="start" x="655.885" y="-352.41" font-family="Times Roman,serif" font-size="14.00">_layout</text>
</g>
<!-- ApplicationController&#45;&gt;UserSessionsController -->
<g id="edge30" class="edge"><title>ApplicationController&#45;&gt;UserSessionsController</title>
<path fill="none" stroke="black" d="M619.996,-516.476C633.068,-504.693 646.378,-492.695 659.097,-481.229"/>
</g>
</g>
</svg>
