<?xml version="1.0" encoding="UTF-8" standalone="no"?>
<!DOCTYPE svg PUBLIC "-//W3C//DTD SVG 1.1//EN"
 "http://www.w3.org/Graphics/SVG/1.1/DTD/svg11.dtd">
<!-- Generated by graphviz version 2.26.3 (20100126.1600)
 -->
<!-- Title: models_diagram Pages: 1 -->
<svg width="1945pt" height="324pt"
 viewBox="0.00 0.00 1945.01 324.00" xmlns="http://www.w3.org/2000/svg" xmlns:xlink="http://www.w3.org/1999/xlink">
<g id="graph1" class="graph" transform="scale(1 1) rotate(0) translate(4 320)">
<title>models_diagram</title>
<polygon fill="white" stroke="white" points="-4,5 -4,-320 1942.01,-320 1942.01,5 -4,5"/>
<!-- _diagram_info -->
<g id="node1" class="node"><title>_diagram_info</title>
<text text-anchor="start" x="331.015" y="-299.8" font-family="Times Roman,serif" font-size="13.00">Models diagram</text>
<text text-anchor="start" x="331.015" y="-282.8" font-family="Times Roman,serif" font-size="13.00">Date: Jun 24 2014 &#45; 13:21</text>
<text text-anchor="start" x="331.015" y="-265.8" font-family="Times Roman,serif" font-size="13.00">Migration version: 20140619164129</text>
<text text-anchor="start" x="331.015" y="-248.8" font-family="Times Roman,serif" font-size="13.00">Generated by RailRoady 1.1.1</text>
<text text-anchor="start" x="331.015" y="-231.8" font-family="Times Roman,serif" font-size="13.00">http://railroady.prestonlee.com</text>
</g>
<!-- Category -->
<g id="node2" class="node"><title>Category</title>
<ellipse fill="none" stroke="black" cx="1087.01" cy="-167" rx="56.0679" ry="18.3848"/>
<text text-anchor="middle" x="1087.01" y="-163.4" font-family="Times Roman,serif" font-size="14.00">Category</text>
</g>
<!-- Product -->
<g id="node12" class="node"><title>Product</title>
<ellipse fill="none" stroke="black" cx="877.015" cy="-93" rx="48.9975" ry="18.3848"/>
<text text-anchor="middle" x="877.015" y="-89.4" font-family="Times Roman,serif" font-size="14.00">Product</text>
</g>
<!-- Category&#45;&gt;Product -->
<g id="edge2" class="edge"><title>Category&#45;&gt;Product</title>
<path fill="none" stroke="#c5fd42" d="M1040.55,-150.627C1005.46,-138.261 957.546,-121.378 922.656,-109.083"/>
<ellipse fill="none" stroke="#c5fd42" cx="1044.72" cy="-152.098" rx="4.00001" ry="4.00001"/>
<polygon fill="#c5fd42" stroke="#c5fd42" points="922.614,-109.068 914.678,-101.501 917.898,-107.407 913.182,-105.745 913.182,-105.745 913.182,-105.745 917.898,-107.407 911.687,-109.989 922.614,-109.068 922.614,-109.068"/>
</g>
<!-- Ingredient -->
<g id="node3" class="node"><title>Ingredient</title>
<ellipse fill="none" stroke="black" cx="79.0147" cy="-167" rx="62.2254" ry="18.3848"/>
<text text-anchor="middle" x="79.0147" y="-163.4" font-family="Times Roman,serif" font-size="14.00">Ingredient</text>
</g>
<!-- User -->
<g id="node4" class="node"><title>User</title>
<ellipse fill="none" stroke="black" cx="193.015" cy="-167" rx="33.9411" ry="18.3848"/>
<text text-anchor="middle" x="193.015" y="-163.4" font-family="Times Roman,serif" font-size="14.00">User</text>
</g>
<!-- Role -->
<g id="node10" class="node"><title>Role</title>
<ellipse fill="none" stroke="black" cx="145.015" cy="-93" rx="32.0265" ry="18.3848"/>
<text text-anchor="middle" x="145.015" y="-89.4" font-family="Times Roman,serif" font-size="14.00">Role</text>
</g>
<!-- User&#45;&gt;Role -->
<g id="edge10" class="edge"><title>User&#45;&gt;Role</title>
<path fill="none" stroke="#8b06e1" d="M176.126,-140.963C171.509,-133.846 166.506,-126.133 161.89,-119.017"/>
<polygon fill="#8b06e1" stroke="#8b06e1" points="176.197,-141.073 177.864,-151.912 178.918,-145.268 181.639,-149.463 181.639,-149.463 181.639,-149.463 178.918,-145.268 185.415,-147.014 176.197,-141.073 176.197,-141.073"/>
<polygon fill="#8b06e1" stroke="#8b06e1" points="161.75,-118.801 160.084,-107.962 159.029,-114.606 156.308,-110.411 156.308,-110.411 156.308,-110.411 159.029,-114.606 152.533,-112.86 161.75,-118.801 161.75,-118.801"/>
</g>
<!-- UserRole -->
<g id="node11" class="node"><title>UserRole</title>
<ellipse fill="none" stroke="black" cx="205.015" cy="-19" rx="53.9477" ry="18.3848"/>
<text text-anchor="middle" x="205.015" y="-15.4" font-family="Times Roman,serif" font-size="14.00">UserRole</text>
</g>
<!-- User&#45;&gt;UserRole -->
<g id="edge8" class="edge"><title>User&#45;&gt;UserRole</title>
<path fill="none" stroke="#13264f" d="M195.203,-140.006C197.319,-113.917 200.513,-74.5269 202.677,-47.8341"/>
<ellipse fill="none" stroke="#13264f" cx="194.858" cy="-144.269" rx="4" ry="4"/>
<polygon fill="#13264f" stroke="#13264f" points="202.699,-47.5594 207.993,-37.9558 203.103,-42.5758 203.507,-37.5921 203.507,-37.5921 203.507,-37.5921 203.103,-42.5758 199.022,-37.2284 202.699,-47.5594 202.699,-47.5594"/>
</g>
<!-- UserSession -->
<g id="node5" class="node"><title>UserSession</title>
<polygon fill="none" stroke="black" points="1857.01,-185 1757.01,-185 1757.01,-149 1857.01,-149 1857.01,-185"/>
<text text-anchor="middle" x="1807.01" y="-163.4" font-family="Times Roman,serif" font-size="14.00">UserSession</text>
</g>
<!-- Pallet -->
<g id="node6" class="node"><title>Pallet</title>
<ellipse fill="none" stroke="black" cx="1200.01" cy="-167" rx="38.8909" ry="18.3848"/>
<text text-anchor="middle" x="1200.01" y="-163.4" font-family="Times Roman,serif" font-size="14.00">Pallet</text>
</g>
<!-- Pallet&#45;&gt;Product -->
<g id="edge16" class="edge"><title>Pallet&#45;&gt;Product</title>
<path fill="none" stroke="#6b646c" d="M1163.23,-151.672C1159.48,-150.338 1155.69,-149.085 1152.01,-148 1077.5,-125.996 989.038,-110.054 932.962,-101.166"/>
<ellipse fill="none" stroke="#6b646c" cx="1167.11" cy="-153.107" rx="4.00001" ry="4.00001"/>
<polygon fill="#6b646c" stroke="#6b646c" points="932.759,-101.135 923.574,-95.143 927.819,-100.362 922.879,-99.5889 922.879,-99.5889 922.879,-99.5889 927.819,-100.362 922.183,-104.035 932.759,-101.135 932.759,-101.135"/>
</g>
<!-- Markup -->
<g id="node7" class="node"><title>Markup</title>
<ellipse fill="none" stroke="black" cx="331.015" cy="-167" rx="48.0833" ry="18.3848"/>
<text text-anchor="middle" x="331.015" y="-163.4" font-family="Times Roman,serif" font-size="14.00">Markup</text>
</g>
<!-- ProductPackageElement -->
<g id="node8" class="node"><title>ProductPackageElement</title>
<ellipse fill="none" stroke="black" cx="527.015" cy="-19" rx="128.901" ry="18.3848"/>
<text text-anchor="middle" x="527.015" y="-15.4" font-family="Times Roman,serif" font-size="14.00">ProductPackageElement</text>
</g>
<!-- PackageElement -->
<g id="node9" class="node"><title>PackageElement</title>
<ellipse fill="none" stroke="black" cx="527.015" cy="-167" rx="91.9239" ry="18.3848"/>
<text text-anchor="middle" x="527.015" y="-163.4" font-family="Times Roman,serif" font-size="14.00">PackageElement</text>
</g>
<!-- PackageElement&#45;&gt;ProductPackageElement -->
<g id="edge24" class="edge"><title>PackageElement&#45;&gt;ProductPackageElement</title>
<path fill="none" stroke="#8bcf12" d="M527.015,-140.006C527.015,-113.917 527.015,-74.5269 527.015,-47.8341"/>
<ellipse fill="none" stroke="#8bcf12" cx="527.015" cy="-144.256" rx="4" ry="4"/>
<polygon fill="#8bcf12" stroke="#8bcf12" points="527.015,-47.5921 531.515,-37.5921 527.015,-42.5921 527.015,-37.5921 527.015,-37.5921 527.015,-37.5921 527.015,-42.5921 522.515,-37.5922 527.015,-47.5921 527.015,-47.5921"/>
</g>
<!-- PackageElement&#45;&gt;Product -->
<g id="edge26" class="edge"><title>PackageElement&#45;&gt;Product</title>
<path fill="none" stroke="#168934" d="M600.992,-151.359C667.89,-137.215 764.744,-116.737 824.148,-104.177"/>
<polygon fill="#168934" stroke="#168934" points="600.587,-151.445 589.872,-149.111 595.695,-152.479 590.803,-153.513 590.803,-153.513 590.803,-153.513 595.695,-152.479 591.734,-157.916 600.587,-151.445 600.587,-151.445"/>
<polygon fill="#168934" stroke="#168934" points="824.285,-104.149 835,-106.483 829.177,-103.114 834.069,-102.08 834.069,-102.08 834.069,-102.08 829.177,-103.114 833.138,-97.6773 824.285,-104.149 824.285,-104.149"/>
</g>
<!-- Role&#45;&gt;UserRole -->
<g id="edge30" class="edge"><title>Role&#45;&gt;UserRole</title>
<path fill="none" stroke="#855bbc" d="M163.762,-69.878C170.206,-61.9306 177.46,-52.9842 184.067,-44.835"/>
<ellipse fill="none" stroke="#855bbc" cx="161.149" cy="-73.1012" rx="4.00002" ry="4.00002"/>
<polygon fill="#855bbc" stroke="#855bbc" points="184.107,-44.7857 193.901,-39.8523 187.256,-40.9019 190.405,-37.0182 190.405,-37.0182 190.405,-37.0182 187.256,-40.9019 186.91,-34.184 184.107,-44.7857 184.107,-44.7857"/>
</g>
<!-- Product&#45;&gt;ProductPackageElement -->
<g id="edge36" class="edge"><title>Product&#45;&gt;ProductPackageElement</title>
<path fill="none" stroke="#305f6a" d="M825.949,-82.2033C769.203,-70.2055 676.741,-50.6564 609.657,-36.473"/>
<ellipse fill="none" stroke="#305f6a" cx="830.184" cy="-83.0987" rx="4.00001" ry="4.00001"/>
<polygon fill="#305f6a" stroke="#305f6a" points="609.319,-36.4015 600.466,-29.9302 604.427,-35.3672 599.535,-34.3328 599.535,-34.3328 599.535,-34.3328 604.427,-35.3672 598.604,-38.7355 609.319,-36.4015 609.319,-36.4015"/>
</g>
<!-- ItemClass -->
<g id="node13" class="node"><title>ItemClass</title>
<ellipse fill="none" stroke="black" cx="695.015" cy="-167" rx="58.1882" ry="18.3848"/>
<text text-anchor="middle" x="695.015" y="-163.4" font-family="Times Roman,serif" font-size="14.00">ItemClass</text>
</g>
<!-- ItemClass&#45;&gt;Product -->
<g id="edge40" class="edge"><title>ItemClass&#45;&gt;Product</title>
<path fill="none" stroke="#49e15f" d="M738.5,-149.319C767.464,-137.543 805.355,-122.137 834.183,-110.415"/>
<ellipse fill="none" stroke="#49e15f" cx="734.677" cy="-150.873" rx="4.00001" ry="4.00001"/>
<polygon fill="#49e15f" stroke="#49e15f" points="834.323,-110.358 845.282,-110.76 838.955,-108.475 843.587,-106.592 843.587,-106.592 843.587,-106.592 838.955,-108.475 841.892,-102.423 834.323,-110.358 834.323,-110.358"/>
</g>
<!-- Brand -->
<g id="node14" class="node"><title>Brand</title>
<ellipse fill="none" stroke="black" cx="812.015" cy="-167" rx="41.0122" ry="18.3848"/>
<text text-anchor="middle" x="812.015" y="-163.4" font-family="Times Roman,serif" font-size="14.00">Brand</text>
</g>
<!-- Brand&#45;&gt;Product -->
<g id="edge44" class="edge"><title>Brand&#45;&gt;Product</title>
<path fill="none" stroke="#31287e" d="M832.711,-143.438C839.71,-135.47 847.554,-126.54 854.675,-118.433"/>
<ellipse fill="none" stroke="#31287e" cx="830.059" cy="-146.458" rx="4.00002" ry="4.00002"/>
<polygon fill="#31287e" stroke="#31287e" points="854.896,-118.181 864.877,-113.637 858.196,-114.424 861.496,-110.668 861.496,-110.668 861.496,-110.668 858.196,-114.424 858.115,-107.698 854.896,-118.181 854.896,-118.181"/>
</g>
<!-- PackageElementType -->
<g id="node15" class="node"><title>PackageElementType</title>
<ellipse fill="none" stroke="black" cx="1371.01" cy="-167" rx="113.844" ry="18.3848"/>
<text text-anchor="middle" x="1371.01" y="-163.4" font-family="Times Roman,serif" font-size="14.00">PackageElementType</text>
</g>
<!-- ProductType -->
<g id="node16" class="node"><title>ProductType</title>
<ellipse fill="none" stroke="black" cx="942.015" cy="-167" rx="70.9184" ry="18.3848"/>
<text text-anchor="middle" x="942.015" y="-163.4" font-family="Times Roman,serif" font-size="14.00">ProductType</text>
</g>
<!-- ProductType&#45;&gt;Product -->
<g id="edge50" class="edge"><title>ProductType&#45;&gt;Product</title>
<path fill="none" stroke="#1343a9" d="M920.444,-142.443C913.575,-134.622 905.968,-125.962 899.065,-118.103"/>
<ellipse fill="none" stroke="#1343a9" cx="923.307" cy="-145.703" rx="4.00002" ry="4.00002"/>
<polygon fill="#1343a9" stroke="#1343a9" points="899.049,-118.085 895.831,-107.602 895.749,-114.329 892.45,-110.572 892.45,-110.572 892.45,-110.572 895.749,-114.329 889.069,-113.542 899.049,-118.085 899.049,-118.085"/>
</g>
<!-- ProductIngredient -->
<g id="node17" class="node"><title>ProductIngredient</title>
<ellipse fill="none" stroke="black" cx="1640.01" cy="-167" rx="99.201" ry="18.3848"/>
<text text-anchor="middle" x="1640.01" y="-163.4" font-family="Times Roman,serif" font-size="14.00">ProductIngredient</text>
</g>
<!-- ActiveRecord::Base -->
<g id="node19" class="node"><title>ActiveRecord::Base</title>
<ellipse fill="none" stroke="black" cx="695.015" cy="-269" rx="104.151" ry="18.3848"/>
<text text-anchor="middle" x="695.015" y="-265.4" font-family="Times Roman,serif" font-size="14.00">ActiveRecord::Base</text>
</g>
<!-- ActiveRecord::Base&#45;&gt;Category -->
<g id="edge4" class="edge"><title>ActiveRecord::Base&#45;&gt;Category</title>
<path fill="none" stroke="black" d="M756.661,-254.051C822.528,-237.916 929.914,-211.141 1022.01,-186 1029.5,-183.957 1037.45,-181.704 1045.12,-179.486"/>
</g>
<!-- ActiveRecord::Base&#45;&gt;Ingredient -->
<g id="edge6" class="edge"><title>ActiveRecord::Base&#45;&gt;Ingredient</title>
<path fill="none" stroke="black" d="M660.84,-251.503C638.9,-241.105 609.473,-228.68 582.015,-222 394.81,-176.455 339.827,-219.034 150.015,-186 141.215,-184.469 131.919,-182.354 123.056,-180.09"/>
</g>
<!-- ActiveRecord::Base&#45;&gt;User -->
<g id="edge12" class="edge"><title>ActiveRecord::Base&#45;&gt;User</title>
<path fill="none" stroke="black" d="M660.291,-251.479C638.385,-241.209 609.192,-228.93 582.015,-222 434.342,-184.345 389.006,-222.38 241.015,-186 233.791,-184.224 226.206,-181.603 219.253,-178.87"/>
</g>
<!-- ActiveRecord::Base&#45;&gt;Pallet -->
<g id="edge18" class="edge"><title>ActiveRecord::Base&#45;&gt;Pallet</title>
<path fill="none" stroke="black" d="M781.239,-258.508C873.992,-246.029 1025.24,-222.218 1152.01,-186 1158.31,-184.203 1164.91,-181.885 1171.14,-179.491"/>
</g>
<!-- ActiveRecord::Base&#45;&gt;Markup -->
<g id="edge20" class="edge"><title>ActiveRecord::Base&#45;&gt;Markup</title>
<path fill="none" stroke="black" d="M658.562,-251.585C636.758,-241.742 608.27,-229.869 582.015,-222 500.104,-197.451 476.017,-206.558 393.015,-186 384.819,-183.97 376.104,-181.499 367.877,-179.019"/>
</g>
<!-- ActiveRecord::Base&#45;&gt;ProductPackageElement -->
<g id="edge22" class="edge"><title>ActiveRecord::Base&#45;&gt;ProductPackageElement</title>
<path fill="none" stroke="black" d="M657.681,-251.618C635.94,-241.967 607.81,-230.277 582.015,-222 514.261,-200.261 470.313,-241.685 426.015,-186 386.253,-136.017 459.806,-69.0979 501.359,-37.2834"/>
</g>
<!-- ActiveRecord::Base&#45;&gt;PackageElement -->
<g id="edge28" class="edge"><title>ActiveRecord::Base&#45;&gt;PackageElement</title>
<path fill="none" stroke="black" d="M665.751,-251.233C634.916,-232.512 586.651,-203.208 555.943,-184.563"/>
</g>
<!-- ActiveRecord::Base&#45;&gt;Role -->
<g id="edge32" class="edge"><title>ActiveRecord::Base&#45;&gt;Role</title>
<path fill="none" stroke="black" d="M660.886,-251.307C638.965,-240.834 609.54,-228.398 582.015,-222 519.771,-207.531 51.7639,-232.579 8.0147,-186 -3.54775,-173.69 -1.4449,-161.991 8.0147,-148 31.4141,-113.391 80.5571,-100.557 113.174,-95.7996"/>
</g>
<!-- ActiveRecord::Base&#45;&gt;UserRole -->
<g id="edge34" class="edge"><title>ActiveRecord::Base&#45;&gt;UserRole</title>
<path fill="none" stroke="black" d="M660.014,-251.469C638.126,-241.263 609.05,-229.055 582.015,-222 515.337,-204.6 328.97,-227.576 274.015,-186 249.185,-167.215 221.376,-77.156 210.136,-37.6474"/>
</g>
<!-- ActiveRecord::Base&#45;&gt;Product -->
<g id="edge38" class="edge"><title>ActiveRecord::Base&#45;&gt;Product</title>
<path fill="none" stroke="black" d="M797.786,-265.852C1003.07,-258.5 1448.2,-236.821 1494.01,-186 1505.32,-173.456 1505.41,-160.461 1494.01,-148 1455.93,-106.367 1065.6,-96.0313 926.177,-93.6584"/>
</g>
<!-- ActiveRecord::Base&#45;&gt;ItemClass -->
<g id="edge42" class="edge"><title>ActiveRecord::Base&#45;&gt;ItemClass</title>
<path fill="none" stroke="black" d="M695.015,-250.292C695.015,-231.888 695.015,-203.953 695.015,-185.59"/>
</g>
<!-- ActiveRecord::Base&#45;&gt;Brand -->
<g id="edge46" class="edge"><title>ActiveRecord::Base&#45;&gt;Brand</title>
<path fill="none" stroke="black" d="M715.932,-250.764C737.754,-231.74 771.676,-202.167 792.83,-183.725"/>
</g>
<!-- ActiveRecord::Base&#45;&gt;PackageElementType -->
<g id="edge48" class="edge"><title>ActiveRecord::Base&#45;&gt;PackageElementType</title>
<path fill="none" stroke="black" d="M775.163,-257.08C882.75,-241.055 1079.82,-211.613 1248.01,-186 1261.05,-184.016 1274.85,-181.898 1288.32,-179.824"/>
</g>
<!-- ActiveRecord::Base&#45;&gt;ProductType -->
<g id="edge52" class="edge"><title>ActiveRecord::Base&#45;&gt;ProductType</title>
<path fill="none" stroke="black" d="M736.357,-251.927C783.05,-232.645 858.42,-201.521 903.789,-182.785"/>
</g>
<!-- ActiveRecord::Base&#45;&gt;ProductIngredient -->
<g id="edge54" class="edge"><title>ActiveRecord::Base&#45;&gt;ProductIngredient</title>
<path fill="none" stroke="black" d="M790.399,-261.581C945.3,-249.063 1261.02,-221.59 1527.01,-186 1540.42,-184.206 1554.68,-182.025 1568.39,-179.788"/>
</g>
<!-- Authlogic::Session::Base -->
<g id="node25" class="node"><title>Authlogic::Session::Base</title>
<ellipse fill="none" stroke="black" cx="1807.01" cy="-269" rx="130.108" ry="18.3848"/>
<text text-anchor="middle" x="1807.01" y="-265.4" font-family="Times Roman,serif" font-size="14.00">Authlogic::Session::Base</text>
</g>
<!-- Authlogic::Session::Base&#45;&gt;UserSession -->
<g id="edge14" class="edge"><title>Authlogic::Session::Base&#45;&gt;UserSession</title>
<path fill="none" stroke="black" d="M1807.01,-250.292C1807.01,-231.773 1807.01,-203.603 1807.01,-185.247"/>
</g>
</g>
</svg>
